<svg width="58" height="58" viewBox="0 0 58 58" fill="none" xmlns="http://www.w3.org/2000/svg">
<path fill-rule="evenodd" clip-rule="evenodd" d="M43.4796 14.3916C44.1519 15.064 44.6789 15.8672 45.0279 16.7517L45.033 16.753C45.9538 19.0764 45.9029 24.1354 45.8699 27.415C45.8644 27.9577 45.8594 28.4516 45.8594 28.8764C45.8594 29.3011 45.8644 29.7951 45.8699 30.338C45.9029 33.6193 45.9539 38.684 45.033 40.9998C44.6841 41.8843 44.1571 42.6875 43.4847 43.3599C42.8124 44.0322 42.0091 44.5592 41.1247 44.9082C38.8035 45.8296 33.7533 45.7784 30.4725 45.7451C29.9277 45.7396 29.4317 45.7346 29.0051 45.7346C28.5865 45.7346 28.1009 45.7392 27.5678 45.7443C24.2861 45.7759 19.2061 45.8247 16.8843 44.9082C15.9998 44.5592 15.1965 44.0322 14.5242 43.3599C13.8519 42.6875 13.3249 41.8843 12.9759 40.9998C12.0551 38.6679 12.1036 33.5799 12.1348 30.3011C12.1398 29.7723 12.1444 29.2906 12.1444 28.8751C12.1444 28.4583 12.1398 27.9748 12.1347 27.4439C12.1034 24.1635 12.0549 19.0747 12.9708 16.7517C13.3198 15.8672 13.8468 15.064 14.5191 14.3916C15.1914 13.7193 15.9947 13.1923 16.8791 12.8433C19.2004 11.9219 24.2526 11.9731 27.5332 12.0064C28.0778 12.0119 28.5736 12.0169 29 12.0169C29.4184 12.0169 29.9038 12.0123 30.4367 12.0071C33.7176 11.9756 38.7977 11.9268 41.1196 12.8433C42.004 13.1923 42.8073 13.7193 43.4796 14.3916ZM23.145 37.639C24.8781 38.797 26.9156 39.4151 29 39.4151C30.3845 39.4168 31.7556 39.1454 33.035 38.6163C34.3144 38.0873 35.4769 37.3111 36.4558 36.3322C37.4348 35.3532 38.211 34.1907 38.74 32.9114C39.269 31.632 39.5405 30.2608 39.5388 28.8764C39.5388 26.792 38.9207 24.7544 37.7627 23.0213C36.6047 21.2882 34.9587 19.9375 33.033 19.1398C31.1073 18.3421 28.9883 18.1334 26.944 18.5401C24.8997 18.9467 23.0219 19.9504 21.548 21.4243C20.0741 22.8982 19.0704 24.776 18.6637 26.8203C18.2571 28.8647 18.4658 30.9837 19.2635 32.9094C20.0611 34.8351 21.4119 36.481 23.145 37.639ZM38.6062 19.9414C39.0109 20.2116 39.4866 20.3556 39.9732 20.3554L39.9783 20.3605C40.3014 20.3603 40.6213 20.2964 40.9197 20.1723C41.218 20.0482 41.489 19.8665 41.7169 19.6374C41.9449 19.4084 42.1253 19.1367 42.248 18.8377C42.3707 18.5388 42.4331 18.2186 42.4318 17.8955C42.4318 17.4089 42.2875 16.9332 42.0171 16.5287C41.7468 16.1241 41.3625 15.8088 40.913 15.6227C40.4634 15.4366 39.9687 15.3879 39.4915 15.4829C39.0143 15.578 38.576 15.8124 38.232 16.1565C37.888 16.5007 37.6539 16.9391 37.5591 17.4164C37.4643 17.8936 37.5132 18.3883 37.6996 18.8377C37.886 19.2872 38.2015 19.6713 38.6062 19.9414Z" fill="black"/>
<path fill-rule="evenodd" clip-rule="evenodd" d="M48.5134 0H9.48661H6.38021H0.211182V6.16903V9.97546V47.6021V51.4086V57.5776H6.35745L6.38021 57.5776H51.6198L51.6426 57.5776H57.7888V51.4086V47.6021V9.97546V6.16903V0H51.6198H48.5134ZM49.4195 37.2712C49.2537 40.5652 48.5019 43.484 46.0972 45.8822C43.6926 48.2804 40.7764 49.0477 37.4863 49.2045C34.092 49.396 23.9157 49.396 20.5214 49.2045C17.2274 49.0387 14.319 48.2855 11.9105 45.8822C9.502 43.4788 8.74501 40.5588 8.58821 37.2712C8.39672 33.8757 8.39672 23.6981 8.58821 20.3064C8.75401 17.0124 9.49686 14.0937 11.9105 11.6955C14.3241 9.29725 17.2403 8.53897 20.5214 8.38217C23.9157 8.19068 34.092 8.19068 37.4863 8.38217C40.7803 8.54797 43.6977 9.3011 46.0972 11.7045C48.4967 14.1078 49.2627 17.0278 49.4195 20.3218C49.611 23.7045 49.611 33.8731 49.4195 37.2712Z" fill="black"/>
</svg>
