<svg width="201" height="43" viewBox="0 0 201 43" fill="none" xmlns="http://www.w3.org/2000/svg">
<path fill-rule="evenodd" clip-rule="evenodd" d="M42.2869 2.13665H198.803V40.8634H42.2869V2.13665ZM42.2869 0H198.803H201V2.13665V40.8634V43H198.803H42.2869H2.19672H0V40.8634V2.13665V0H2.19672H42.2869Z" fill="#1498D5"/>
<path d="M63.9787 30.1096C62.2103 30.1096 60.6103 29.7328 59.1789 28.9794C57.7642 28.2094 56.6526 27.1611 55.8442 25.8342C55.0358 24.491 54.6317 22.9839 54.6317 21.3131C54.6317 19.6422 55.0358 18.1434 55.8442 16.8165C56.6526 15.4733 57.7727 14.4249 59.2041 13.6714C60.6356 12.9014 62.2356 12.5165 64.004 12.5165C65.3849 12.5165 66.648 12.7458 67.7933 13.2045C68.9386 13.6468 69.9153 14.3102 70.7237 15.1948L69.0817 16.7428C67.7513 15.3832 66.0922 14.7034 64.105 14.7034C62.7914 14.7034 61.604 14.99 60.543 15.5634C59.482 16.1367 58.6484 16.9312 58.0421 17.9468C57.4525 18.946 57.1579 20.0681 57.1579 21.3131C57.1579 22.558 57.4525 23.6883 58.0421 24.7039C58.6484 25.7032 59.482 26.4894 60.543 27.0628C61.604 27.6362 62.7914 27.9228 64.105 27.9228C66.0755 27.9228 67.7343 27.2348 69.0817 25.8588L70.7237 27.4068C69.9153 28.2914 68.9301 28.9631 67.768 29.4216C66.6227 29.8802 65.3596 30.1096 63.9787 30.1096ZM73.9738 11.6811H76.399V29.9131H73.9738V11.6811ZM81.0297 16.8902H83.4548V29.9131H81.0297V16.8902ZM82.2422 14.3839C81.7705 14.3839 81.3748 14.2365 81.0549 13.9416C80.7518 13.6468 80.6002 13.2864 80.6002 12.8605C80.6002 12.4346 80.7518 12.0742 81.0549 11.7794C81.3748 11.4681 81.7705 11.3125 82.2422 11.3125C82.7137 11.3125 83.1012 11.4599 83.4043 11.7548C83.7242 12.0333 83.8843 12.3854 83.8843 12.8114C83.8843 13.2536 83.7242 13.6304 83.4043 13.9416C83.1012 14.2365 82.7137 14.3839 82.2422 14.3839ZM104.834 16.7674C106.518 16.7674 107.849 17.2424 108.826 18.1925C109.819 19.1426 110.316 20.5514 110.316 22.4188V29.9131H107.891V22.6891C107.891 21.4277 107.588 20.4776 106.981 19.8388C106.392 19.1999 105.542 18.8805 104.43 18.8805C103.201 18.8805 102.224 19.2573 101.5 20.0108C100.775 20.7479 100.413 21.8127 100.413 23.2051V29.9131H97.9881V22.6891C97.9881 21.4277 97.6849 20.4776 97.0786 19.8388C96.4891 19.1999 95.6387 18.8805 94.5271 18.8805C93.2978 18.8805 92.3208 19.2573 91.5967 20.0108C90.8726 20.7479 90.5104 21.8127 90.5104 23.2051V29.9131H88.0853V16.8902H90.4094V18.8314C90.8979 18.1597 91.5377 17.6519 92.3293 17.3079C93.121 16.9476 94.0219 16.7674 95.0324 16.7674C96.0767 16.7674 97.0028 16.9721 97.8112 17.3816C98.6196 17.7912 99.2427 18.3891 99.6806 19.1754C100.186 18.4218 100.885 17.8321 101.777 17.4062C102.687 16.9803 103.706 16.7674 104.834 16.7674ZM119.654 16.7674C121.507 16.7674 122.921 17.2096 123.898 18.0942C124.892 18.9788 125.389 20.2974 125.389 22.0502V29.9131H123.09V28.1931C122.686 28.7991 122.105 29.2659 121.347 29.5936C120.606 29.9048 119.721 30.0605 118.694 30.0605C117.195 30.0605 115.991 29.7082 115.082 29.0039C114.189 28.2996 113.743 27.3739 113.743 26.2274C113.743 25.0807 114.172 24.1634 115.031 23.4754C115.89 22.771 117.254 22.4188 119.124 22.4188H122.963V21.9519C122.963 20.9363 122.66 20.1582 122.054 19.6176C121.448 19.0771 120.555 18.8068 119.376 18.8068C118.585 18.8068 117.81 18.9378 117.052 19.1999C116.294 19.4456 115.654 19.7814 115.132 20.2074L114.122 18.4382C114.812 17.8976 115.637 17.4881 116.597 17.2096C117.557 16.9148 118.576 16.7674 119.654 16.7674ZM119.098 28.2422C120.024 28.2422 120.825 28.0456 121.498 27.6525C122.172 27.2431 122.66 26.6696 122.963 25.9325V24.1142H119.225C117.17 24.1142 116.143 24.7858 116.143 26.1291C116.143 26.7842 116.404 27.3002 116.926 27.6771C117.448 28.0539 118.172 28.2422 119.098 28.2422ZM133.742 14.8508H127.679V12.7131H142.306V14.8508H136.243V29.9131H133.742V14.8508ZM155.422 23.4754C155.422 23.6556 155.406 23.8931 155.372 24.1879H144.509C144.661 25.3346 145.174 26.2601 146.05 26.9645C146.943 27.6525 148.046 27.9965 149.359 27.9965C150.96 27.9965 152.248 27.4722 153.225 26.4239L154.564 27.9474C153.957 28.6354 153.199 29.1596 152.29 29.5199C151.398 29.8802 150.395 30.0605 149.284 30.0605C147.869 30.0605 146.614 29.7819 145.52 29.2251C144.425 28.6517 143.574 27.8574 142.968 26.8416C142.379 25.826 142.084 24.6794 142.084 23.4016C142.084 22.1403 142.37 21.0018 142.943 19.9862C143.532 18.9706 144.332 18.1843 145.343 17.6274C146.37 17.054 147.524 16.7674 148.804 16.7674C150.084 16.7674 151.221 17.054 152.214 17.6274C153.225 18.1843 154.008 18.9706 154.564 19.9862C155.136 21.0018 155.422 22.1649 155.422 23.4754ZM148.804 18.7576C147.642 18.7576 146.665 19.1016 145.873 19.7896C145.099 20.4776 144.644 21.3786 144.509 22.4925H153.098C152.964 21.395 152.501 20.5022 151.709 19.8142C150.934 19.1098 149.966 18.7576 148.804 18.7576ZM164.626 30.0605C163.261 30.0605 162.041 29.7739 160.963 29.2005C159.902 28.6271 159.068 27.8408 158.462 26.8416C157.855 25.826 157.552 24.6794 157.552 23.4016C157.552 22.1239 157.855 20.9854 158.462 19.9862C159.068 18.9706 159.902 18.1843 160.963 17.6274C162.041 17.054 163.261 16.7674 164.626 16.7674C165.838 16.7674 166.916 17.0049 167.859 17.4799C168.819 17.955 169.56 18.643 170.082 19.5439L168.238 20.6988C167.817 20.0763 167.295 19.6094 166.672 19.2982C166.049 18.987 165.358 18.8314 164.6 18.8314C163.725 18.8314 162.933 19.0197 162.226 19.3965C161.535 19.7733 160.988 20.3138 160.584 21.0182C160.196 21.7062 160.003 22.5007 160.003 23.4016C160.003 24.319 160.196 25.1298 160.584 25.8342C160.988 26.5222 161.535 27.0545 162.226 27.4314C162.933 27.8082 163.725 27.9965 164.6 27.9965C165.358 27.9965 166.049 27.8408 166.672 27.5296C167.295 27.2185 167.817 26.7516 168.238 26.1291L170.082 27.2594C169.56 28.1602 168.819 28.8565 167.859 29.3479C166.916 29.8231 165.838 30.0605 164.626 30.0605ZM180.199 16.7674C181.9 16.7674 183.247 17.2506 184.241 18.2171C185.251 19.1672 185.756 20.5677 185.756 22.4188V29.9131H183.331V22.6891C183.331 21.4277 183.02 20.4776 182.397 19.8388C181.774 19.1999 180.881 18.8805 179.719 18.8805C178.405 18.8805 177.369 19.2573 176.611 20.0108C175.854 20.7479 175.475 21.8127 175.475 23.2051V29.9131H173.05V11.6811H175.475V18.7331C175.98 18.1106 176.637 17.6274 177.445 17.2834C178.27 16.9394 179.188 16.7674 180.199 16.7674Z" fill="black"/>
<path fill-rule="evenodd" clip-rule="evenodd" d="M15.8723 13.0408C13.4141 13.5898 11.5826 15.7046 11.5826 18.2298C11.5826 21.1722 14.0693 23.5575 17.1367 23.5575C18.9079 23.5575 20.4855 22.7622 21.5025 21.5235C20.7348 24.592 17.8557 26.8725 14.4214 26.8725C10.3996 26.8725 7.13934 23.7451 7.13934 19.8873C7.13934 16.0295 10.3996 12.9021 14.4214 12.9021C14.9182 12.9021 15.4034 12.9498 15.8723 13.0408Z" fill="white"/>
<path fill-rule="evenodd" clip-rule="evenodd" d="M30.9917 14.9041C30.4273 12.513 28.253 10.7317 25.6568 10.7317C22.6317 10.7317 20.1793 13.1503 20.1793 16.1339C20.1793 17.8567 20.997 19.3911 22.2705 20.3803C19.1157 19.6335 16.7711 16.8332 16.7711 13.4928C16.7711 9.58102 19.9864 6.40991 23.9527 6.40991C27.919 6.40991 31.1343 9.58102 31.1343 13.4928C31.1343 13.976 31.0852 14.448 30.9917 14.9041Z" fill="white"/>
<path fill-rule="evenodd" clip-rule="evenodd" d="M23.1923 21.7026C24.2093 20.4639 25.7869 19.6686 27.5581 19.6686C30.6256 19.6686 33.1122 22.0539 33.1122 24.9963C33.1122 27.5215 31.2808 29.6363 28.8225 30.1853C29.2914 30.2762 29.7766 30.324 30.2735 30.324C34.2952 30.324 37.5555 27.1966 37.5555 23.3388C37.5555 19.481 34.2952 16.3536 30.2735 16.3536C26.8391 16.3536 23.9601 18.6341 23.1923 21.7026Z" fill="white"/>
<path fill-rule="evenodd" clip-rule="evenodd" d="M22.4243 22.3526C23.6978 23.3418 24.5155 24.8762 24.5155 26.599C24.5155 29.5826 22.0632 32.0012 19.038 32.0012C16.4419 32.0012 14.2675 30.2199 13.7031 27.8289C13.6096 28.2849 13.5605 28.7569 13.5605 29.2401C13.5605 33.1519 16.7759 36.323 20.7421 36.323C24.7084 36.323 27.9237 33.1519 27.9237 29.2401C27.9237 25.8997 25.5791 23.0994 22.4243 22.3526Z" fill="white"/>
</svg>
