<svg width="187" height="43" viewBox="0 0 187 43" fill="none" xmlns="http://www.w3.org/2000/svg">
<g clip-path="url(#clip0_127_7)">
<path fill-rule="evenodd" clip-rule="evenodd" d="M39.4119 2.13665H184.428V40.8634H39.4119V2.13665ZM39.4119 0H184.428H186.463V2.13665V40.8634V43H184.428H39.4119H2.26743H0.232117V40.8634V2.13665V0H2.26743H39.4119Z" fill="#1498D5"/>
<path d="M59.5099 30.1096C57.8715 30.1096 56.389 29.7328 55.0627 28.9793C53.752 28.2093 52.7221 27.161 51.9731 25.8342C51.2241 24.491 50.8496 22.9839 50.8496 21.313C50.8496 19.6422 51.2241 18.1433 51.9731 16.8165C52.7221 15.4732 53.7599 14.4248 55.0861 13.6713C56.4124 12.9014 57.8949 12.5165 59.5333 12.5165C60.8128 12.5165 61.9831 12.7458 63.0442 13.2045C64.1054 13.6468 65.0103 14.3102 65.7593 15.1948L64.2379 16.7428C63.0053 15.3831 61.4681 14.7033 59.6269 14.7033C58.4098 14.7033 57.3097 14.99 56.3267 15.5633C55.3436 16.1367 54.5712 16.9311 54.0095 17.9468C53.4632 18.946 53.1903 20.0681 53.1903 21.313C53.1903 22.558 53.4632 23.6883 54.0095 24.7039C54.5712 25.7031 55.3436 26.4894 56.3267 27.0628C57.3097 27.6362 58.4098 27.9228 59.6269 27.9228C61.4526 27.9228 62.9895 27.2348 64.2379 25.8588L65.7593 27.4068C65.0103 28.2913 64.0975 28.963 63.0208 29.4216C61.9597 29.8802 60.7894 30.1096 59.5099 30.1096ZM68.7706 11.681H71.0176V29.913H68.7706V11.681ZM75.308 16.8902H77.555V29.913H75.308V16.8902ZM76.4315 14.3839C75.9944 14.3839 75.6278 14.2365 75.3314 13.9416C75.0506 13.6468 74.9101 13.2864 74.9101 12.8605C74.9101 12.4346 75.0506 12.0742 75.3314 11.7793C75.6278 11.4681 75.9944 11.3125 76.4315 11.3125C76.8683 11.3125 77.2273 11.4599 77.5082 11.7548C77.8046 12.0332 77.9529 12.3854 77.9529 12.8113C77.9529 13.2536 77.8046 13.6304 77.5082 13.9416C77.2273 14.2365 76.8683 14.3839 76.4315 14.3839ZM97.3635 16.7673C98.9238 16.7673 100.157 17.2424 101.062 18.1925C101.982 19.1426 102.443 20.5513 102.443 22.4188V29.913H100.196V22.689C100.196 21.4277 99.9147 20.4776 99.353 19.8388C98.8068 19.1999 98.0188 18.8805 96.989 18.8805C95.85 18.8805 94.9447 19.2572 94.2739 20.0108C93.603 20.7479 93.2674 21.8127 93.2674 23.205V29.913H91.0204V22.689C91.0204 21.4277 90.7395 20.4776 90.1778 19.8388C89.6316 19.1999 88.8436 18.8805 87.8138 18.8805C86.6747 18.8805 85.7695 19.2572 85.0987 20.0108C84.4278 20.7479 84.0922 21.8127 84.0922 23.205V29.913H81.8452V16.8902H83.9986V18.8313C84.4512 18.1597 85.0439 17.6519 85.7774 17.3079C86.5109 16.9475 87.3456 16.7673 88.2819 16.7673C89.2494 16.7673 90.1076 16.9721 90.8566 17.3816C91.6056 17.7911 92.1828 18.389 92.5886 19.1753C93.0567 18.4218 93.7042 17.8321 94.5313 17.4062C95.3739 16.9803 96.3181 16.7673 97.3635 16.7673ZM111.094 16.7673C112.811 16.7673 114.122 17.2096 115.027 18.0942C115.947 18.9788 116.408 20.2974 116.408 22.0502V29.913H114.278V28.193C113.903 28.799 113.365 29.2659 112.663 29.5936C111.976 29.9048 111.157 30.0605 110.205 30.0605C108.816 30.0605 107.701 29.7082 106.858 29.0039C106.031 28.2996 105.617 27.3739 105.617 26.2273C105.617 25.0807 106.015 24.1633 106.811 23.4753C107.607 22.771 108.871 22.4188 110.603 22.4188H114.161V21.9519C114.161 20.9363 113.88 20.1582 113.318 19.6176C112.756 19.077 111.929 18.8068 110.837 18.8068C110.104 18.8068 109.386 18.9378 108.684 19.1999C107.981 19.4456 107.388 19.7814 106.905 20.2073L105.969 18.4382C106.608 17.8976 107.373 17.4881 108.262 17.2096C109.152 16.9148 110.096 16.7673 111.094 16.7673ZM110.58 28.2422C111.438 28.2422 112.179 28.0456 112.803 27.6525C113.427 27.243 113.88 26.6696 114.161 25.9325V24.1142H110.697C108.793 24.1142 107.841 24.7858 107.841 26.129C107.841 26.7842 108.083 27.3002 108.567 27.677C109.05 28.0539 109.721 28.2422 110.58 28.2422ZM124.147 14.8508H118.529V12.713H132.082V14.8508H126.464V29.913H124.147V14.8508ZM144.235 23.4753C144.235 23.6555 144.219 23.893 144.188 24.1879H134.123C134.264 25.3346 134.74 26.2601 135.551 26.9645C136.378 27.6525 137.4 27.9965 138.617 27.9965C140.1 27.9965 141.293 27.4722 142.198 26.4239L143.439 27.9473C142.877 28.6353 142.175 29.1596 141.332 29.5199C140.506 29.8802 139.577 30.0605 138.547 30.0605C137.236 30.0605 136.074 29.7819 135.06 29.225C134.045 28.6516 133.257 27.8573 132.696 26.8416C132.15 25.826 131.876 24.6793 131.876 23.4016C131.876 22.1403 132.142 21.0018 132.672 19.9862C133.218 18.9706 133.959 18.1843 134.896 17.6273C135.848 17.054 136.917 16.7673 138.102 16.7673C139.288 16.7673 140.342 17.054 141.262 17.6273C142.198 18.1843 142.924 18.9706 143.439 19.9862C143.97 21.0018 144.235 22.1648 144.235 23.4753ZM138.102 18.7576C137.026 18.7576 136.121 19.1016 135.387 19.7896C134.67 20.4776 134.248 21.3786 134.123 22.4925H142.081C141.957 21.395 141.528 20.5022 140.794 19.8142C140.076 19.1098 139.179 18.7576 138.102 18.7576ZM152.762 30.0605C151.498 30.0605 150.367 29.7739 149.368 29.2005C148.385 28.627 147.612 27.8408 147.051 26.8416C146.489 25.826 146.208 24.6793 146.208 23.4016C146.208 22.1239 146.489 20.9854 147.051 19.9862C147.612 18.9706 148.385 18.1843 149.368 17.6273C150.367 17.054 151.498 16.7673 152.762 16.7673C153.885 16.7673 154.884 17.0048 155.758 17.4799C156.647 17.955 157.334 18.643 157.817 19.5439L156.109 20.6988C155.719 20.0763 155.235 19.6094 154.658 19.2982C154.08 18.987 153.44 18.8313 152.738 18.8313C151.927 18.8313 151.193 19.0197 150.538 19.3965C149.899 19.7732 149.391 20.3138 149.017 21.0182C148.658 21.7062 148.478 22.5007 148.478 23.4016C148.478 24.319 148.658 25.1298 149.017 25.8342C149.391 26.5222 149.899 27.0545 150.538 27.4313C151.193 27.8082 151.927 27.9965 152.738 27.9965C153.44 27.9965 154.08 27.8408 154.658 27.5296C155.235 27.2185 155.719 26.7516 156.109 26.129L157.817 27.2593C157.334 28.1602 156.647 28.8565 155.758 29.3479C154.884 29.823 153.885 30.0605 152.762 30.0605ZM167.191 16.7673C168.767 16.7673 170.015 17.2506 170.936 18.217C171.872 19.1671 172.34 20.5677 172.34 22.4188V29.913H170.093V22.689C170.093 21.4277 169.804 20.4776 169.227 19.8388C168.65 19.1999 167.823 18.8805 166.746 18.8805C165.529 18.8805 164.569 19.2572 163.867 20.0108C163.165 20.7479 162.814 21.8127 162.814 23.205V29.913H160.567V11.681H162.814V18.733C163.282 18.1106 163.89 17.6273 164.639 17.2833C165.404 16.9393 166.254 16.7673 167.191 16.7673Z" fill="black"/>
<path fill-rule="evenodd" clip-rule="evenodd" d="M14.9382 13.0407C12.6606 13.5897 10.9637 15.7046 10.9637 18.2297C10.9637 21.1721 13.2676 23.5574 16.1097 23.5574C17.7508 23.5574 19.2125 22.7621 20.1547 21.5234C19.4434 24.5919 16.7759 26.8724 13.5939 26.8724C9.86762 26.8724 6.84689 23.7451 6.84689 19.8872C6.84689 16.0294 9.86762 12.9021 13.5939 12.9021C14.0542 12.9021 14.5038 12.9498 14.9382 13.0407Z" fill="white"/>
<path fill-rule="evenodd" clip-rule="evenodd" d="M28.9467 14.9041C28.4238 12.5131 26.4092 10.7317 24.0038 10.7317C21.2009 10.7317 18.9288 13.1503 18.9288 16.1339C18.9288 17.8567 19.6864 19.3911 20.8663 20.3803C17.9433 19.6335 15.771 16.8332 15.771 13.4928C15.771 9.58105 18.75 6.40993 22.4249 6.40993C26.0997 6.40993 29.0788 9.58105 29.0788 13.4928C29.0788 13.9761 29.0333 14.448 28.9467 14.9041Z" fill="white"/>
<path fill-rule="evenodd" clip-rule="evenodd" d="M21.7203 21.7025C22.6626 20.4639 24.1243 19.6686 25.7654 19.6686C28.6074 19.6686 30.9114 22.0538 30.9114 24.9962C30.9114 27.5214 29.2145 29.6363 26.9369 30.1853C27.3713 30.2762 27.8209 30.3239 28.2812 30.3239C32.0074 30.3239 35.0282 27.1966 35.0282 23.3387C35.0282 19.4809 32.0074 16.3536 28.2812 16.3536C25.0992 16.3536 22.4317 18.6341 21.7203 21.7025Z" fill="white"/>
<path fill-rule="evenodd" clip-rule="evenodd" d="M21.0088 22.3526C22.1887 23.3418 22.9463 24.8762 22.9463 26.599C22.9463 29.5826 20.6741 32.0012 17.8713 32.0012C15.4659 32.0012 13.4513 30.2199 12.9284 27.8289C12.8417 28.2849 12.7963 28.7569 12.7963 29.2401C12.7963 33.1519 15.7753 36.323 19.4502 36.323C23.125 36.323 26.1041 33.1519 26.1041 29.2401C26.1041 25.8997 23.9317 23.0994 21.0088 22.3526Z" fill="white"/>
</g>
<defs>
<clipPath id="clip0_127_7">
<rect width="186.231" height="43" fill="white" transform="translate(0.232117)"/>
</clipPath>
</defs>
</svg>
