<svg width="58" height="58" viewBox="0 0 58 58" fill="none" xmlns="http://www.w3.org/2000/svg">
<path d="M29.2406 12.648C25.0137 12.6522 20.961 14.333 17.9718 17.3217C14.9826 20.3103 13.3009 24.3626 13.2958 28.5896C13.2926 31.5992 14.1379 34.5321 15.7324 37.0711L16.1102 37.673L14.4997 43.5546L20.535 41.973L21.1146 42.3187C23.572 43.7732 26.3755 44.5396 29.231 44.5376H29.2342C33.4598 44.5316 37.5107 42.8506 40.499 39.863C43.4872 36.8753 45.169 32.8248 45.1758 28.5992C45.1831 26.5047 44.7749 24.4295 43.9747 22.4938C43.1745 20.5582 41.9982 18.8005 40.514 17.3226C39.0375 15.8365 37.2809 14.6581 35.3457 13.8557C33.4106 13.0533 31.3355 12.6428 29.2406 12.648ZM38.6154 35.4382C38.2152 36.5588 36.3005 37.5769 35.3816 37.7146C34.3743 37.8883 33.3402 37.8236 32.3624 37.5257C31.4347 37.2384 30.523 36.9018 29.6312 36.5171C24.8222 34.4424 21.6845 29.6045 21.4411 29.2812C21.2042 28.961 19.4881 26.6813 19.4881 24.3248C19.4881 21.9651 20.7239 20.8061 21.1626 20.3258C21.3236 20.1438 21.5205 19.997 21.7409 19.8946C21.9612 19.7921 22.2003 19.7362 22.4433 19.7303C22.7635 19.7303 23.0804 19.7335 23.3622 19.7463C23.6568 19.7591 24.0506 19.6342 24.438 20.5692C24.8382 21.5297 25.7987 23.8862 25.9172 24.1263C26.0357 24.3633 26.1157 24.645 25.9588 24.9652C25.7987 25.2886 25.7219 25.4839 25.4786 25.7656C25.2416 26.0474 24.9759 26.39 24.7614 26.6077C24.5212 26.8446 24.2715 27.104 24.55 27.5842C24.8318 28.0613 25.7923 29.6334 27.2139 30.9045C29.0453 32.5374 30.5918 33.04 31.0688 33.2834C31.5491 33.5203 31.8277 33.4851 32.1094 33.1617C32.388 32.8383 33.3069 31.7625 33.6271 31.2855C33.9472 30.8052 34.2642 30.8852 34.706 31.0421C35.1447 31.2054 37.5012 32.3613 37.9783 32.6014C38.4521 32.8383 38.7755 32.96 38.8972 33.1617C39.0124 33.3602 39.0124 34.3175 38.6154 35.4382Z" fill="black"/>
<path fill-rule="evenodd" clip-rule="evenodd" d="M47.3936 0H11.0288H3.62112H0.422363V3.21078V8.87475L0.42236 48.9194V57.7942H10.8123V57.7941H47.3936V57.7942H58V54.5955L58 54.5833V3.21078L58 3.19863V0H54.8012H47.3936ZM29.3391 47.8278H29.3327C26.1342 47.8282 22.9865 47.0234 20.1779 45.4872L10.0186 48.1617L12.7376 38.1955C11.0582 35.2712 10.1749 31.9548 10.1766 28.5794C10.1782 25.204 11.0647 21.8885 12.747 18.9658C14.4292 16.0432 16.8481 13.6163 19.7605 11.929C22.6729 10.2416 25.9764 9.35322 29.3391 9.35301C31.8583 9.34602 34.3537 9.84107 36.6808 10.8095C39.0078 11.7778 41.1202 13.2003 42.8955 14.9944C44.679 16.7775 46.0923 18.898 47.0537 21.2332C48.0152 23.5683 48.5056 26.0717 48.4965 28.5984C48.4889 33.696 46.4681 38.5827 42.877 42.1872C39.286 45.7918 34.4176 47.8202 29.3391 47.8278Z" fill="black"/>
</svg>
